#N canvas 524 48 712 851 12;
#X floatatom 23 234 5 0 0 1 fundamental_freq - -;
#X obj 22 817 dac~, f 7;
#X obj 22 748 *~;
#X obj 40 721 line~;
#X obj 26 206 hsl 128 15 80 120 0 0 empty empty empty -2 -8 0 10 -262144
-1 -1 4800 1;
#N canvas 0 26 1920 1054 osc 0;
#X obj 18 166 s #accelerate;
#X obj 265 167 print pdparty;
#X text 153 44 receives PdParty events over OSC;
#X text 142 74 useful for patch development & debugging;
#X obj 141 15 tgl 15 0 empty empty print_all_messages 17 7 0 10 -262144
-1 -1 0 1;
#X obj 18 15 tgl 15 0 empty empty listen 17 7 0 10 -262144 -1 -1 0
1;
#N canvas 0 23 417 316 oscreceive 0;
#X obj 110 133 oscparse;
#X obj 110 162 list trim;
#X obj 130 235 spigot;
#X obj 110 287 outlet;
#X obj 163 201 inlet;
#X obj 130 261 print OSC;
#X msg 110 71 listen 0;
#X obj 110 45 sel 0;
#X obj 110 106 netreceive -u -b;
#X obj 110 16 inlet;
#X msg 175 72 listen 8888;
#X connect 0 0 1 0;
#X connect 1 0 2 0;
#X connect 1 0 3 0;
#X connect 2 0 5 0;
#X connect 4 0 2 1;
#X connect 6 0 8 0;
#X connect 7 0 6 0;
#X connect 7 1 10 0;
#X connect 8 0 0 0;
#X connect 9 0 7 0;
#X connect 10 0 8 0;
#X coords 0 316 1 315 140 40 0;
#X restore 18 44 pd oscreceive 8888;
#X obj 18 77 route pdparty;
#X obj 141 168 s #gyro;
#X obj 84 15 inlet;
#X obj 388 167 s #octaves;
#X obj 17 110 route accelerate gyro print octaves, f 71;
#X msg 551 34 \; pd dsp \$1;
#X connect 4 0 6 1;
#X connect 5 0 6 0;
#X connect 6 0 7 0;
#X connect 7 0 11 0;
#X connect 9 0 6 1;
#X connect 9 0 6 0;
#X connect 9 0 12 0;
#X connect 11 0 0 0;
#X connect 11 1 8 0;
#X connect 11 2 1 0;
#X connect 11 3 10 0;
#X restore 23 64 pd osc receiver;
#X obj 23 14 tgl 35 0 empty empty empty 17 7 0 10 -262144 -1 -1 0 1
;
#N canvas 776 377 471 497 orientation 0;
#X obj 25 11 r #gyro;
#X obj 26 299 vsl 15 128 -1 1 0 0 empty empty empty 0 -9 0 10 -262144
-1 -1 0 1;
#X obj 25 45 unpack f f f, f 17;
#X obj 84 298 vsl 15 128 -1 1 0 0 empty empty empty 0 -9 0 10 -262144
-1 -1 0 1;
#X obj 141 298 vsl 15 128 -1 1 0 0 empty empty empty 0 -9 0 10 -262144
-1 -1 0 1;
#X obj 25 106 line 0;
#X obj 84 106 line 0;
#X obj 141 106 line 0;
#X obj 26 444 s pitch;
#X obj 84 444 s roll;
#X msg 25 81 \$1 500;
#X msg 84 81 \$1 500;
#X msg 141 81 \$1 500;
#X obj 217 299 vsl 15 128 -1 1 0 0 empty empty empty 0 -9 0 10 -262144
-1 -1 0 1;
#X obj 217 44 unpack f f f, f 19;
#X obj 283 298 vsl 15 128 -1 1 0 0 empty empty empty 0 -9 0 10 -262144
-1 -1 0 1;
#X obj 347 298 vsl 15 128 -1 1 0 0 empty empty empty 0 -9 0 10 -262144
-1 -1 0 1;
#X obj 217 104 line 0;
#X obj 282 104 line 0;
#X obj 347 104 line 0;
#X msg 217 79 \$1 500;
#X msg 282 79 \$1 500;
#X msg 347 79 \$1 500;
#X obj 217 442 s acc_x;
#X obj 283 443 s acc_y;
#X obj 347 443 s acc_z;
#X obj 217 11 r #accelerate;
#X obj 141 444 s yaw;
#X obj 26 256 spigot;
#X obj 65 236 tgl 15 1 empty t1 empty 17 7 0 10 -262144 -1 -1 1 1;
#X obj 84 257 spigot;
#X obj 123 235 tgl 15 1 empty t2 empty 17 7 0 10 -262144 -1 -1 1 1
;
#X obj 141 257 spigot;
#X obj 180 234 tgl 15 1 empty t3 empty 17 7 0 10 -262144 -1 -1 1 1
;
#X obj 217 258 spigot;
#X obj 256 238 tgl 15 1 empty t4 empty 17 7 0 10 -262144 -1 -1 1 1
;
#X obj 283 259 spigot;
#X obj 322 239 tgl 15 1 empty t5 empty 17 7 0 10 -262144 -1 -1 1 1
;
#X obj 347 258 spigot;
#X obj 387 238 tgl 15 1 empty t6 empty 17 7 0 10 -262144 -1 -1 1 1
;
#X msg 385 312 \; t1 set 1 \; t2 set 1 \; t3 set 1 \; t4 set 1 \; t5
set 1 \; t6 set 1 \;;
#X obj 385 288 loadbang;
#X obj 217 131 clip -1 1;
#X obj 282 161 clip -1 1;
#X obj 347 186 clip -1 1;
#X connect 0 0 2 0;
#X connect 1 0 8 0;
#X connect 2 0 10 0;
#X connect 2 1 11 0;
#X connect 2 2 12 0;
#X connect 3 0 9 0;
#X connect 4 0 27 0;
#X connect 5 0 28 0;
#X connect 6 0 30 0;
#X connect 7 0 32 0;
#X connect 10 0 5 0;
#X connect 11 0 6 0;
#X connect 12 0 7 0;
#X connect 13 0 23 0;
#X connect 14 0 20 0;
#X connect 14 1 21 0;
#X connect 14 2 22 0;
#X connect 15 0 24 0;
#X connect 16 0 25 0;
#X connect 17 0 42 0;
#X connect 18 0 43 0;
#X connect 19 0 44 0;
#X connect 20 0 17 0;
#X connect 21 0 18 0;
#X connect 22 0 19 0;
#X connect 26 0 14 0;
#X connect 28 0 1 0;
#X connect 29 0 28 1;
#X connect 30 0 3 0;
#X connect 31 0 30 1;
#X connect 32 0 4 0;
#X connect 33 0 32 1;
#X connect 34 0 13 0;
#X connect 35 0 34 1;
#X connect 36 0 15 0;
#X connect 37 0 36 1;
#X connect 38 0 16 0;
#X connect 39 0 38 1;
#X connect 41 0 40 0;
#X connect 42 0 34 0;
#X connect 43 0 36 0;
#X connect 44 0 38 0;
#X restore 23 89 pd orientation;
#X msg 186 265 LFO1frequency \$1, f 17;
#X floatatom 186 234 5 0 0 1 LFO_freq - -;
#X obj 189 205 hsl 128 15 0 10 0 0 empty empty empty -2 -8 0 10 -262144
-1 -1 3000 1;
#X obj 509 372 hsl 128 15 0 0.5 0 0 empty empty dry/wet -50 6 0 10
-262144 -1 -1 0 1;
#N canvas 433 320 343 237 reverb 0;
#X obj 130 63 inlet~;
#X obj 130 169 outlet~;
#X obj 238 12 inlet;
#N canvas 411 158 182 107 invert 0;
#X obj 18 13 inlet;
#X obj 18 68 outlet;
#X obj 18 41 m_scale 0 1 1 0;
#X connect 0 0 2 0;
#X connect 2 0 1 0;
#X restore 53 43 pd invert;
#X obj 130 140 rev2~ 100 95 2000 98;
#X obj 28 93 *~ 1;
#X obj 130 95 *~ 1;
#X connect 0 0 5 0;
#X connect 0 0 6 0;
#X connect 2 0 3 0;
#X connect 2 0 6 1;
#X connect 3 0 5 1;
#X connect 4 0 1 0;
#X connect 5 0 1 0;
#X connect 6 0 4 0;
#X restore 23 482 pd reverb;
#X text 168 89 acc + gyr data smoothed;
#X obj 40 645 r volume;
#X obj 43 673 hsl 128 15 0 0.7 0 0 empty empty volume 135 6 0 10 -262144
-1 -1 9200 1;
#X msg 346 265 LFO2frequency \$1, f 17;
#X floatatom 346 234 5 0 0 1 LFO2_freq - -;
#X obj 349 206 hsl 128 15 0 10 0 0 empty empty empty -2 -8 0 10 -262144
-1 -1 0 1;
#N canvas 0 50 450 300 (subpatch) 0;
#X array scope 4100 float 4;
#X coords 0 1 4099 -1 266 113 1 0 0;
#X restore 368 673 graph;
#N canvas 0 23 175 134 scope 0;
#X obj 37 86 tabwrite~ scope;
#X obj 37 35 loadbang;
#X obj 24 11 inlet~;
#X obj 37 60 metro 100;
#X connect 1 0 3 0;
#X connect 2 0 0 0;
#X connect 3 0 0 0;
#X restore 90 818 pd scope;
#X obj 351 648 cnv 15 300 155 empty empty empty 20 12 0 14 -228856
-66577 0;
#X obj 260 681 vu 15 120 vu empty -1 -8 0 10 -262144 -1 1 0;
#X obj 259 647 r vu;
#X obj 23 413 addsi~;
#N canvas 874 215 162 197 oct 0;
#X floatatom 41 80 5 0 0 0 - - -;
#X obj 41 24 r #octaves;
#X obj 41 53 unpack f;
#X obj 41 161 outlet;
#X obj 41 108 * 2;
#X obj 41 135 change;
#X connect 0 0 4 0;
#X connect 1 0 2 0;
#X connect 2 0 0 0;
#X connect 4 0 5 0;
#X connect 5 0 3 0;
#X restore 506 151 pd oct;
#X text 168 63 osc data in and dsp on;
#N canvas 812 279 220 361 volume 0;
#X obj 15 10 r pitch;
#X obj 76 10 r roll;
#X obj 138 10 r yaw;
#X obj 18 302 hsl 128 15 0 0.7 0 0 empty empty empty -2 -8 0 10 -262144
-1 -1 0 1;
#X obj 15 323 s volume;
#X floatatom 96 37 5 0 0 0 - - -;
#X floatatom 26 36 5 0 0 0 - - -;
#X floatatom 165 37 5 0 0 0 - - -;
#X msg 15 252 \$1 10;
#X obj 15 277 line;
#X obj 15 70 expr if($f1 <0.03&& $f1 >-0.03 && $f2<0.035 && $f2>-0.035
&& $f3 <0.03 && $f3>-0.03 \, 0 \, 0.7), f 18;
#X connect 0 0 6 0;
#X connect 0 0 10 0;
#X connect 1 0 5 0;
#X connect 1 0 10 1;
#X connect 2 0 7 0;
#X connect 2 0 10 2;
#X connect 3 0 4 0;
#X connect 8 0 9 0;
#X connect 9 0 3 0;
#X connect 10 0 8 0;
#X restore 23 113 pd volume gate;
#N canvas 1227 436 153 189 vu 0;
#X obj 36 78 env~;
#X obj 36 102 - 100;
#X obj 36 127 s vu;
#X obj 36 34 inlet~;
#X connect 0 0 1 0;
#X connect 1 0 2 0;
#X connect 3 0 0 0;
#X restore 164 818 pd vu;
#X msg 40 697 \$1 185;
#X obj 506 309 r acc_z;
#X obj 23 178 m_scale -1 1 80 120;
#X obj 346 151 r acc_x;
#X obj 23 153 r acc_z;
#X obj 346 178 m_scale 1 -1 10 0;
#X text 605 629 ADDSI~;
#X floatatom 506 234 5 0 16 1 max_16_partials - -;
#X obj 186 154 r acc_x;
#X obj 186 178 m_scale -1 1 0 10;
#X msg 23 265 frequency \$1;
#X text 169 115 threshold logic for volume control;
#X obj 506 341 m_scale -1 1 0 1;
#X msg 506 265 harmonics \$1;
#X connect 0 0 39 0;
#X connect 2 0 1 0;
#X connect 2 0 1 1;
#X connect 2 0 20 0;
#X connect 2 0 28 0;
#X connect 3 0 2 1;
#X connect 4 0 0 0;
#X connect 6 0 5 0;
#X connect 8 0 24 0;
#X connect 9 0 8 0;
#X connect 10 0 9 0;
#X connect 11 0 12 1;
#X connect 12 0 2 0;
#X connect 14 0 15 0;
#X connect 15 0 29 0;
#X connect 16 0 24 0;
#X connect 17 0 16 0;
#X connect 18 0 17 0;
#X connect 23 0 22 0;
#X connect 24 0 12 0;
#X connect 25 0 36 0;
#X connect 29 0 3 0;
#X connect 30 0 41 0;
#X connect 31 0 4 0;
#X connect 32 0 34 0;
#X connect 33 0 31 0;
#X connect 34 0 18 0;
#X connect 36 0 42 0;
#X connect 37 0 38 0;
#X connect 38 0 10 0;
#X connect 39 0 24 0;
#X connect 41 0 11 0;
#X connect 42 0 24 0;
