#N canvas 283 23 804 707 12;
#X floatatom 23 234 5 0 0 1 fundamental_freq - -;
#X obj 22 785 dac~, f 7;
#X obj 22 748 *~;
#X obj 40 721 line~;
#X obj 26 206 hsl 128 15 60 120 0 0 empty empty empty -2 -8 0 10 -262144
-1 -1 8486 1;
#N canvas 129 136 661 276 osc 0;
#X obj 18 166 s #accelerate;
#X obj 265 167 print pdparty;
#X text 153 44 receives PdParty events over OSC;
#X text 142 74 useful for patch development & debugging;
#X obj 141 15 tgl 15 0 empty empty print_all_messages 17 7 0 10 -262144
-1 -1 0 1;
#X obj 21 13 tgl 15 0 empty empty listen 17 7 0 10 -262144 -1 -1 0
1;
#N canvas 703 185 417 316 oscreceive 1;
#X obj 110 133 oscparse;
#X obj 110 162 list trim;
#X obj 130 235 spigot;
#X obj 110 287 outlet;
#X obj 163 201 inlet;
#X obj 130 261 print OSC;
#X msg 110 71 listen 0;
#X obj 110 45 sel 0;
#X obj 110 106 netreceive -u -b;
#X obj 110 16 inlet;
#X msg 175 72 listen 8888;
#X connect 0 0 1 0;
#X connect 1 0 2 0;
#X connect 1 0 3 0;
#X connect 2 0 5 0;
#X connect 4 0 2 1;
#X connect 6 0 8 0;
#X connect 7 0 6 0;
#X connect 7 1 10 0;
#X connect 8 0 0 0;
#X connect 9 0 7 0;
#X connect 10 0 8 0;
#X coords 0 316 1 315 140 40 0;
#X restore 18 44 pd oscreceive 8888;
#X obj 18 77 route pdparty;
#X obj 141 168 s #gyro;
#X obj 84 15 inlet;
#X obj 388 167 s #octaves;
#X obj 17 110 route accelerate gyro print octaves, f 71;
#X connect 5 0 6 0;
#X connect 6 0 7 0;
#X connect 7 0 11 0;
#X connect 9 0 6 1;
#X connect 9 0 6 0;
#X connect 11 0 0 0;
#X connect 11 1 8 0;
#X connect 11 3 10 0;
#X restore 23 49 pd osc receiver;
#X obj 23 14 tgl 25 0 empty empty empty 17 7 0 10 -262144 -1 -1 0 1
;
#N canvas 71 47 471 497 orientation 0;
#X obj 25 11 r #gyro;
#X obj 26 299 vsl 15 128 -1 1 0 0 empty empty empty 0 -9 0 10 -262144
-1 -1 6265 1;
#X obj 25 45 unpack f f f, f 17;
#X obj 84 298 vsl 15 128 -1 1 0 0 empty empty empty 0 -9 0 10 -262144
-1 -1 6387 1;
#X obj 141 298 vsl 15 128 -1 1 0 0 empty empty empty 0 -9 0 10 -262144
-1 -1 6355 1;
#X obj 25 106 line 0;
#X obj 84 106 line 0;
#X obj 141 106 line 0;
#X obj 26 444 s pitch;
#X obj 84 444 s roll;
#X msg 25 81 \$1 500;
#X msg 84 81 \$1 500;
#X msg 141 81 \$1 500;
#X obj 217 299 vsl 15 128 -1 1 0 0 empty empty empty 0 -9 0 10 -262144
-1 -1 6489 1;
#X obj 217 44 unpack f f f, f 19;
#X obj 283 298 vsl 15 128 -1 1 0 0 empty empty empty 0 -9 0 10 -262144
-1 -1 6379 1;
#X obj 347 298 vsl 15 128 -1 1 0 0 empty empty empty 0 -9 0 10 -262144
-1 -1 0 1;
#X obj 217 104 line 0;
#X obj 282 104 line 0;
#X obj 347 104 line 0;
#X msg 217 79 \$1 500;
#X msg 282 79 \$1 500;
#X msg 347 79 \$1 500;
#X obj 217 442 s acc_x;
#X obj 283 443 s acc_y;
#X obj 347 443 s acc_z;
#X obj 218 9 r #accelerate;
#X obj 141 444 s yaw;
#X obj 26 256 spigot;
#X obj 65 236 tgl 15 1 empty t1 empty 17 7 0 10 -262144 -1 -1 1 1;
#X obj 84 257 spigot;
#X obj 123 235 tgl 15 1 empty t2 empty 17 7 0 10 -262144 -1 -1 1 1
;
#X obj 141 257 spigot;
#X obj 180 234 tgl 15 1 empty t3 empty 17 7 0 10 -262144 -1 -1 1 1
;
#X obj 217 258 spigot;
#X obj 256 238 tgl 15 1 empty t4 empty 17 7 0 10 -262144 -1 -1 1 1
;
#X obj 283 259 spigot;
#X obj 322 239 tgl 15 1 empty t5 empty 17 7 0 10 -262144 -1 -1 1 1
;
#X obj 347 258 spigot;
#X obj 387 238 tgl 15 1 empty t6 empty 17 7 0 10 -262144 -1 -1 1 1
;
#X msg 385 312 \; t1 set 1 \; t2 set 1 \; t3 set 1 \; t4 set 1 \; t5
set 1 \; t6 set 1 \;;
#X obj 385 288 loadbang;
#X obj 217 131 clip -1 1;
#X obj 282 161 clip -1 1;
#X obj 347 186 clip -1 1;
#X connect 0 0 2 0;
#X connect 1 0 8 0;
#X connect 2 0 10 0;
#X connect 2 1 11 0;
#X connect 2 2 12 0;
#X connect 3 0 9 0;
#X connect 4 0 27 0;
#X connect 5 0 28 0;
#X connect 6 0 30 0;
#X connect 7 0 32 0;
#X connect 10 0 5 0;
#X connect 11 0 6 0;
#X connect 12 0 7 0;
#X connect 13 0 23 0;
#X connect 14 0 20 0;
#X connect 14 1 21 0;
#X connect 14 2 22 0;
#X connect 15 0 24 0;
#X connect 16 0 25 0;
#X connect 17 0 42 0;
#X connect 18 0 43 0;
#X connect 19 0 44 0;
#X connect 20 0 17 0;
#X connect 21 0 18 0;
#X connect 22 0 19 0;
#X connect 26 0 14 0;
#X connect 28 0 1 0;
#X connect 29 0 28 1;
#X connect 30 0 3 0;
#X connect 31 0 30 1;
#X connect 32 0 4 0;
#X connect 33 0 32 1;
#X connect 34 0 13 0;
#X connect 35 0 34 1;
#X connect 36 0 15 0;
#X connect 37 0 36 1;
#X connect 38 0 16 0;
#X connect 39 0 38 1;
#X connect 41 0 40 0;
#X connect 42 0 34 0;
#X connect 43 0 36 0;
#X connect 44 0 38 0;
#X restore 23 74 pd orientation;
#X msg 23 312 basefrequency \$1, f 8;
#X text 168 48 osc data in;
#X msg 185 265 LFO1frequency \$1, f 17;
#X floatatom 185 234 5 0 0 1 LFO_freq - -;
#X obj 188 205 hsl 128 15 0 10 0 0 empty empty empty -2 -8 0 10 -262144
-1 -1 6489 1;
#X obj 504 268 hsl 128 15 0 0.5 0 0 empty empty dry/wet 135 6 0 10
-262144 -1 -1 0 1;
#N canvas 0 45 504 286 reverb 0;
#X obj 102 54 inlet~;
#X floatatom 164 55 0 0 120 0 - - -;
#X text 221 54 level \, dB;
#X floatatom 198 78 0 0 100 0 - - -;
#X text 242 79 liveness \, 0-100;
#X floatatom 232 105 0 0 120 0 - - -;
#X floatatom 267 134 0 0 120 0 - - -;
#X text 263 105 crossover frequency \, Hz.;
#X text 300 135 HF damping \, percent;
#X obj 102 86 *~ 0.5;
#X obj 102 197 outlet~;
#X obj 140 8 inlet;
#X obj 102 168 rev2~ 100 90 3000 80;
#X obj 3 85 *~ 0.5;
#N canvas 411 158 182 107 invert 0;
#X obj 18 41 m_scale 0 0.5 0.5 0;
#X obj 18 13 inlet;
#X obj 18 68 outlet;
#X connect 0 0 2 0;
#X connect 1 0 0 0;
#X restore 6 33 pd invert;
#X connect 0 0 9 0;
#X connect 0 0 13 0;
#X connect 1 0 12 1;
#X connect 3 0 12 2;
#X connect 5 0 12 3;
#X connect 6 0 12 4;
#X connect 9 0 12 0;
#X connect 11 0 9 1;
#X connect 11 0 14 0;
#X connect 12 0 10 0;
#X connect 13 0 10 0;
#X connect 14 0 13 1;
#X restore 23 447 pd reverb;
#X text 168 74 acc + gyr data smoothed;
#X obj 40 645 r volume;
#N canvas 813 279 220 290 volume 0;
#X obj 16 10 r pitch;
#X obj 77 10 r roll;
#X obj 139 10 r yaw;
#X obj 18 232 hsl 128 15 0 1 0 0 empty empty empty -2 -8 0 10 -262144
-1 -1 0 1;
#X obj 15 198 line 0;
#X obj 15 259 s volume;
#X floatatom 97 37 5 0 0 0 - - -;
#X floatatom 27 36 5 0 0 0 - - -;
#X floatatom 166 37 5 0 0 0 - - -;
#X msg 15 173 \$1 300;
#X obj 15 71 expr if($f1 <0.03&& $f1 >-0.03 && $f2<0.03 && $f2>-0.03
&& $f3 <0.03 && $f3>-0.03 \, 0 \, 1), f 18;
#X connect 0 0 7 0;
#X connect 0 0 10 0;
#X connect 1 0 6 0;
#X connect 1 0 10 1;
#X connect 2 0 8 0;
#X connect 2 0 10 2;
#X connect 3 0 5 0;
#X connect 4 0 3 0;
#X connect 9 0 4 0;
#X connect 10 0 9 0;
#X restore 23 98 pd volume control;
#X text 169 100 threshold logic for volume;
#X obj 43 674 hsl 128 15 0 1 0 0 empty empty volume 135 6 0 10 -262144
-1 -1 0 1;
#X msg 41 503 0.5;
#X msg 341 265 LFO2frequency \$1, f 17;
#X floatatom 341 234 5 0 0 1 LFO2_freq - -;
#X obj 344 206 hsl 128 15 0 20 0 0 empty empty empty -2 -8 0 10 -262144
-1 -1 12700 1;
#X obj 41 479 loadbang;
#X obj 23 527 *~;
#X floatatom 74 590 0 0 0 0 - - -;
#X obj 74 534 r acc_z;
#N canvas 0 50 450 300 (subpatch) 0;
#X array scope 4100 float 4;
#X coords 0 1 4099 -1 266 113 1 0 0;
#X restore 368 673 graph;
#X obj 22 616 lop~ 800;
#N canvas 0 23 175 134 scope 0;
#X obj 37 60 metro 100;
#X obj 37 86 tabwrite~ scope;
#X obj 37 35 loadbang;
#X obj 24 11 inlet~;
#X connect 0 0 1 0;
#X connect 2 0 0 0;
#X connect 3 0 1 0;
#X restore 90 786 pd scope;
#X obj 351 648 cnv 15 300 155 empty empty empty 20 12 0 14 -228856
-66577 0;
#X obj 165 737 env~;
#X obj 165 761 - 100;
#X obj 260 681 vu 15 120 vu empty -1 -8 0 10 -262144 -1 1 0;
#X obj 259 647 r vu;
#X obj 165 786 s vu;
#X obj 23 410 addsi~;
#N canvas 646 247 561 360 sel 0;
#X obj 67 11 inlet;
#X obj 7 269 outlet;
#X floatatom 67 36 5 0 0 0 - - -;
#X obj 7 12 inlet;
#X floatatom 7 35 5 0 0 0 - - -;
#X obj 7 226 *;
#X obj 25 177 line 0;
#X msg 25 152 \$1 100;
#X msg 25 106 0.5;
#X msg 59 106 1;
#X obj 184 13 loadbang;
#X msg 166 106 3.5;
#X msg 201 107 5;
#X msg 236 107 2.5;
#X msg 94 106 1.5;
#X msg 130 106 3;
#X obj 67 70 sel 0 1 2 3 4 5 6;
#X connect 0 0 2 0;
#X connect 2 0 16 0;
#X connect 3 0 4 0;
#X connect 4 0 5 0;
#X connect 5 0 1 0;
#X connect 6 0 5 1;
#X connect 7 0 6 0;
#X connect 8 0 7 0;
#X connect 9 0 7 0;
#X connect 10 0 9 0;
#X connect 11 0 7 0;
#X connect 12 0 7 0;
#X connect 13 0 7 0;
#X connect 14 0 7 0;
#X connect 15 0 7 0;
#X connect 16 0 8 0;
#X connect 16 1 9 0;
#X connect 16 2 14 0;
#X connect 16 3 15 0;
#X connect 16 4 11 0;
#X connect 16 5 12 0;
#X connect 16 6 13 0;
#X restore 23 284 pd sel;
#N canvas 874 215 162 136 oct 0;
#X floatatom 41 80 5 0 0 0 - - -;
#X obj 41 24 r #octaves;
#X obj 41 53 unpack f;
#X obj 41 105 outlet;
#X connect 0 0 3 0;
#X connect 1 0 2 0;
#X connect 2 0 0 0;
#X restore 62 258 pd oct;
#X obj 74 560 m_scale -1 1 8200 120;
#X obj 501 213 r acc_z;
#X obj 501 241 m_scale -1 1 0 0.5;
#X msg 40 697 \$1 120;
#X obj 185 178 m_scale -1 1 0 10;
#X obj 341 178 m_scale 1 -1 1 50;
#X obj 23 179 m_scale -1 1 80 120;
#X text 169 123 logic for phone tilt x and y;
#X text 465 475 ADDSI~;
#N canvas 125 292 395 323 tilt_processing 0;
#X obj 202 59 expr if($f1>0&&$f2>0 \, 2-$f1 \, if($f1<0&&$f2>0 \, -2-$f1
\, $f1)), f 17;
#X obj 23 61 expr if($f1>0&&$f2>0 \, 2-$f1 \, if($f1<0&&$f2>0 \, -2-$f1
\, $f1)), f 17;
#X obj 26 193 hsl 128 15 -1 1 0 0 empty empty tilt_x -2 -8 0 10 -262144
-1 -1 6489 1;
#X obj 205 193 hsl 128 15 -1 1 0 0 empty empty tilt_y -2 -8 0 10 -262144
-1 -1 6379 1;
#X obj 23 32 r acc_x;
#X obj 139 33 r acc_z;
#X obj 202 33 r acc_y;
#X obj 318 33 r acc_z;
#X obj 268 270 outlet;
#X obj 21 265 outlet;
#X connect 0 0 3 0;
#X connect 1 0 2 0;
#X connect 2 0 8 0;
#X connect 3 0 9 0;
#X connect 4 0 1 0;
#X connect 5 0 1 1;
#X connect 6 0 0 0;
#X connect 7 0 0 1;
#X restore 23 122 pd tilt_processing;
#X connect 0 0 38 0;
#X connect 2 0 1 0;
#X connect 2 0 1 1;
#X connect 2 0 30 0;
#X connect 2 0 32 0;
#X connect 3 0 2 1;
#X connect 4 0 0 0;
#X connect 6 0 5 0;
#X connect 8 0 37 0;
#X connect 10 0 37 0;
#X connect 11 0 10 0;
#X connect 12 0 11 0;
#X connect 13 0 14 1;
#X connect 14 0 25 0;
#X connect 16 0 19 0;
#X connect 19 0 43 0;
#X connect 20 0 25 1;
#X connect 21 0 37 0;
#X connect 22 0 21 0;
#X connect 23 0 22 0;
#X connect 24 0 20 0;
#X connect 25 0 29 0;
#X connect 26 0 29 1;
#X connect 27 0 40 0;
#X connect 29 0 2 0;
#X connect 32 0 33 0;
#X connect 33 0 36 0;
#X connect 35 0 34 0;
#X connect 37 0 14 0;
#X connect 38 0 8 0;
#X connect 39 0 38 1;
#X connect 40 0 26 0;
#X connect 41 0 42 0;
#X connect 42 0 13 0;
#X connect 43 0 3 0;
#X connect 44 0 12 0;
#X connect 45 0 23 0;
#X connect 46 0 4 0;
#X connect 49 0 46 0;
#X connect 49 1 44 0;
#X connect 49 1 45 0;
